<svg width="14" height="14" viewBox="0 0 14 14" fill="none" xmlns="http://www.w3.org/2000/svg">
<path d="M10.921 6.67928C10.921 4.44026 9.1057 2.62506 6.8667 2.625C4.62764 2.625 2.81242 4.44023 2.81242 6.67928C2.81248 8.91828 4.62768 10.7336 6.8667 10.7336C9.10566 10.7335 10.9209 8.91824 10.921 6.67928ZM11.796 6.67928C11.796 7.89693 11.353 9.01049 10.6213 9.87052L12.6186 11.8022L12.0102 12.4312L9.9987 10.4852C9.14713 11.1868 8.05619 11.6085 6.8667 11.6086C4.14443 11.6086 1.93748 9.40153 1.93742 6.67928C1.93742 3.95698 4.1444 1.75 6.8667 1.75C9.58895 1.75006 11.796 3.95702 11.796 6.67928Z" fill="#717680"/>
</svg>
