<svg width="24" height="24" viewBox="0 0 24 24" fill="none" xmlns="http://www.w3.org/2000/svg">
<path fill-rule="evenodd" clip-rule="evenodd" d="M11.9998 4.25005C7.7196 4.25005 4.2498 7.71984 4.2498 12C4.2498 16.2803 7.7196 19.75 11.9998 19.75C16.28 19.75 19.7498 16.2803 19.7498 12C19.7498 7.71984 16.28 4.25005 11.9998 4.25005ZM2.7498 12C2.7498 6.89141 6.89117 2.75005 11.9998 2.75005C17.1084 2.75005 21.2498 6.89141 21.2498 12C21.2498 17.1087 17.1084 21.25 11.9998 21.25C6.89117 21.25 2.7498 17.1087 2.7498 12ZM16.3551 9.98038L11.2551 15.0804C10.9622 15.3733 10.4874 15.3733 10.1945 15.0804L7.64447 12.5304L8.70513 11.4697L10.7248 13.4894L15.2945 8.91972L16.3551 9.98038Z" fill="#3D8A53"/>
</svg>
