<svg width="20" height="20" viewBox="0 0 20 20" fill="none" xmlns="http://www.w3.org/2000/svg">
<path d="M4.7819 2.43C5.29085 2.20085 5.86831 2.27264 6.37451 2.52034L6.5861 2.63671L6.60482 2.6481L6.62272 2.66112L15.0456 8.64176C15.621 8.97167 16.1335 9.46386 16.1344 10.1489C16.1354 10.8289 15.6273 11.345 15.0496 11.7114L15.0505 11.7122L6.71061 17.3372L6.68376 17.3551L6.65527 17.3706C6.06673 17.6847 5.38539 17.8533 4.79248 17.548C4.18347 17.2344 3.94489 16.5682 3.90218 15.8765L3.90137 15.8586V15.8398L3.86637 4.06737L3.86719 4.06656C3.85523 3.33386 4.16344 2.70866 4.7819 2.43ZM5.92041 3.69547C5.60525 3.50755 5.38447 3.52927 5.29541 3.56933C5.25189 3.58892 5.1414 3.65578 5.11963 3.92415L5.11556 4.05273L5.11637 4.06412L5.15055 15.8073C5.18348 16.3174 5.33647 16.4217 5.36458 16.4364C5.40752 16.4585 5.60065 16.5107 6.04492 16.2785L14.3514 10.6763L14.3604 10.6706L14.3685 10.6649C14.8631 10.3544 14.8845 10.16 14.8844 10.1505C14.8845 10.1483 14.8854 10.1116 14.8218 10.0334C14.7528 9.94862 14.6223 9.83505 14.397 9.70946L14.3669 9.69319L14.3392 9.67284L5.92041 3.69547Z" fill="white"/>
</svg>
