<svg width="20" height="20" viewBox="0 0 20 20" fill="none" xmlns="http://www.w3.org/2000/svg">
<path d="M2.70834 15V13.3333H3.95834V15C3.95834 15.5753 4.42471 16.0417 5 16.0417H6.66667V17.2917H5C3.73435 17.2917 2.70834 16.2657 2.70834 15ZM11.6667 16.0417V17.2917H8.33334V16.0417H11.6667ZM16.0417 15V13.3333H17.2917V15C17.2917 16.2657 16.2657 17.2917 15 17.2917H13.3333V16.0417H15C15.5753 16.0417 16.0417 15.5753 16.0417 15ZM3.95834 8.33333V11.6667H2.70834V8.33333H3.95834ZM17.2917 8.33333V11.6667H16.0417V8.33333H17.2917ZM2.70834 5C2.70834 3.73435 3.73435 2.70833 5 2.70833H6.66667V3.95833H5C4.42471 3.95833 3.95834 4.4247 3.95834 5V6.66667H2.70834V5ZM16.0417 5C16.0417 4.4247 15.5753 3.95833 15 3.95833H13.3333V2.70833H15C16.2657 2.70833 17.2917 3.73435 17.2917 5V6.66667H16.0417V5ZM11.6667 2.70833V3.95833H8.33334V2.70833H11.6667Z" fill="white"/>
</svg>
