<svg width="14" height="14" viewBox="0 0 14 14" fill="none" xmlns="http://www.w3.org/2000/svg">
<path d="M1.89583 10.5V9.33333H2.77083V10.5C2.77083 10.9027 3.09729 11.2292 3.5 11.2292H4.66667V12.1042H3.5C2.61404 12.1042 1.89583 11.386 1.89583 10.5ZM8.16667 11.2292V12.1042H5.83333V11.2292H8.16667ZM11.2292 10.5V9.33333H12.1042V10.5C12.1042 11.386 11.386 12.1042 10.5 12.1042H9.33333V11.2292H10.5C10.9027 11.2292 11.2292 10.9027 11.2292 10.5ZM2.77083 5.83333V8.16667H1.89583V5.83333H2.77083ZM12.1042 5.83333V8.16667H11.2292V5.83333H12.1042ZM1.89583 3.5C1.89583 2.61404 2.61404 1.89583 3.5 1.89583H4.66667V2.77083H3.5C3.09729 2.77083 2.77083 3.09729 2.77083 3.5V4.66667H1.89583V3.5ZM11.2292 3.5C11.2292 3.09729 10.9027 2.77083 10.5 2.77083H9.33333V1.89583H10.5C11.386 1.89583 12.1042 2.61404 12.1042 3.5V4.66667H11.2292V3.5ZM8.16667 1.89583V2.77083H5.83333V1.89583H8.16667Z" fill="#D5D7DA"/>
</svg>
